<svg width="292" height="93" viewBox="0 0 292 93" fill="none" xmlns="http://www.w3.org/2000/svg">
<path d="M292.001 92.701H0.521484V0.13916H292.001V92.701ZM3.97014 89.2523H288.553V3.58781H3.97014V89.2523Z" fill="#353535"/>
<path d="M15.9344 78.3551C15.693 78.3551 15.4171 78.2861 15.1757 78.1827C14.3136 77.7343 13.9687 76.6997 14.3826 75.8721L28.3841 47.4207C28.66 46.8344 29.2807 46.4551 29.936 46.4551C30.5912 46.4551 31.1775 46.8344 31.4879 47.3862L45.9377 75.8376C46.386 76.6998 46.0412 77.7343 45.179 78.1482C44.3168 78.562 43.2822 78.2516 42.8684 77.3895L30.0049 52.0074L17.4863 77.3895C17.176 77.9757 16.5552 78.3551 15.9344 78.3551Z" fill="#353535"/>
<path d="M67.0794 78.6658C60.1821 78.6658 56.2162 75.0102 54.078 71.9409C52.5606 69.7338 51.7329 67.0094 51.7329 64.0435V46.4209C51.7329 45.4553 52.4916 44.6966 53.4572 44.6966C54.4229 44.6966 55.1816 45.4553 55.1816 46.4209V64.0435C55.1816 66.2852 55.7678 68.3543 56.9059 69.9752C59.3199 73.4583 62.7341 75.2172 67.0449 75.2172C71.0798 75.2172 74.3216 73.6998 76.7011 70.7339C78.1496 68.9406 78.9428 66.561 78.9428 64.0435V46.3864C78.9428 45.4208 79.7015 44.6621 80.6671 44.6621C81.6327 44.6621 82.3914 45.4208 82.3914 46.3864V64.0435C82.3914 67.3542 81.3223 70.4925 79.3911 72.8721C77.3219 75.5275 73.4594 78.6658 67.0794 78.6658Z" fill="#353535"/>
<path d="M186.959 77.1473H172.302C169.44 77.1473 166.716 76.0437 164.646 74.009C162.474 71.8709 159.887 68.0084 159.887 61.6629C159.887 54.8 162.922 50.7996 165.474 48.6614C167.371 47.0751 169.75 46.2129 172.337 46.2129H186.994C187.959 46.2129 188.718 46.9716 188.718 47.9372C188.718 48.9028 187.959 49.6615 186.994 49.6615H172.337C170.578 49.6615 168.992 50.2478 167.716 51.3169C165.715 53.0067 163.37 56.145 163.37 61.6973C163.37 65.8357 164.612 69.1464 167.095 71.5605C168.509 72.9399 170.371 73.6986 172.337 73.6986H186.994C187.959 73.6986 188.718 74.4573 188.718 75.423C188.718 76.3886 187.925 77.1473 186.959 77.1473Z" fill="#353535"/>
<path d="M101.946 78.6643C100.981 78.6643 100.222 77.9056 100.222 76.94V49.8681H87.2551C86.2895 49.8681 85.5308 49.1094 85.5308 48.1438C85.5308 47.1781 86.2895 46.4194 87.2551 46.4194H117.051V49.8681H103.671V76.94C103.671 77.9056 102.912 78.6643 101.946 78.6643Z" fill="#353535"/>
<path d="M225.856 78.6648C224.89 78.6648 224.132 77.9061 224.132 76.9405V49.8686H211.165C210.199 49.8686 209.44 49.1099 209.44 48.1442C209.44 47.1786 210.199 46.4199 211.165 46.4199H240.961V49.8686H227.58V76.9405C227.58 77.9061 226.822 78.6648 225.856 78.6648Z" fill="#353535"/>
<path d="M134.501 78.6653C125.121 78.6653 117.499 71.0438 117.499 61.6635C117.499 52.2831 125.121 44.6616 134.501 44.6616C143.881 44.6616 151.503 52.2831 151.503 61.6635C151.503 71.0438 143.847 78.6653 134.501 78.6653ZM134.501 48.1448C127.017 48.1448 120.948 54.2144 120.948 61.698C120.948 69.1815 127.017 75.2512 134.501 75.2512C141.984 75.2512 148.054 69.1815 148.054 61.698C148.054 54.2144 141.95 48.1448 134.501 48.1448Z" fill="#353535"/>
<path d="M200.475 78.6653C199.51 78.6653 198.751 77.9066 198.751 76.941V46.3859C198.751 45.4203 199.51 44.6616 200.475 44.6616C201.441 44.6616 202.2 45.4203 202.2 46.3859V76.941C202.2 77.9066 201.441 78.6653 200.475 78.6653Z" fill="#353535"/>
<path d="M263.48 80.0107C262.515 80.0107 261.756 79.252 261.756 78.2864V63.2847L246.789 48.3521C246.099 47.6623 246.099 46.5933 246.789 45.9035C247.479 45.2138 248.548 45.2138 249.237 45.9035L263.446 60.043L275.964 45.9725C276.585 45.2483 277.689 45.2138 278.413 45.8346C278.792 46.1794 278.999 46.6622 278.999 47.1106C278.999 47.5244 278.861 47.9382 278.551 48.2486L265.239 63.1813V78.2519C265.205 79.252 264.446 80.0107 263.48 80.0107Z" fill="#353535"/>
<path d="M147.988 45.5228C147.506 45.5228 147.057 45.3159 146.712 44.9365C138.16 35.3838 130.711 35.2803 118.364 35.1424C115.123 35.1079 111.433 35.0734 107.398 34.832C99.3969 34.3492 94.6377 31.2454 89.5682 27.9692C85.085 25.0378 80.4638 22.0375 72.8422 20.3476C56.944 16.83 33.2517 24.0032 33.0103 24.1067C32.1137 24.3826 31.1481 23.8653 30.8722 22.9686C30.5963 22.072 31.1136 21.1063 32.0102 20.796C33.0103 20.4856 56.7715 13.2434 73.601 16.968C81.8087 18.7958 86.9472 22.1409 91.465 25.0723C96.3276 28.2451 100.5 30.9695 107.605 31.3833C111.571 31.6247 115.192 31.6592 118.399 31.6937C130.78 31.8316 139.712 31.9351 149.264 42.6259C149.885 43.3501 149.851 44.4192 149.126 45.0745C148.816 45.3848 148.402 45.5228 147.988 45.5228Z" fill="#353535"/>
</svg>
